# Blender 3.3.1
# www.blender.org
mtllib OneBarrelShotGun.mtl
o HandGaurd
v -0.298800 2.137920 0.040449
v 0.482719 2.147853 0.042698
v -0.301042 2.066883 -0.000841
v -0.299803 2.175111 -0.000841
v 0.483335 2.111331 -0.000841
v 0.451221 2.147403 0.042698
v 0.447014 2.096668 -0.000841
v 0.350731 2.146089 0.042698
v 0.347976 2.085084 -0.000841
v 0.501711 2.157917 -0.000841
v 0.482316 2.178538 0.019758
v 0.451198 2.178413 0.019588
v 0.350729 2.178012 0.019039
v -0.299863 2.175414 0.015483
v -0.384179 2.123849 0.039172
v -0.382986 2.064768 -0.000841
v -0.386117 2.181839 0.021784
v -0.385297 2.152931 0.041033
v -0.386117 2.181839 0.021784
v -0.385773 2.171233 -0.000841
v -0.677755 2.159626 -0.000841
v -0.677691 2.203403 0.043278
v 1.691198 2.156146 -0.000841
v 1.691262 2.199924 0.043278
v -0.677625 2.248541 -0.000841
v 1.691329 2.245062 -0.000841
v -0.298800 2.137920 -0.042132
v 0.482719 2.147853 -0.044381
v 0.451221 2.147403 -0.044381
v 0.350731 2.146089 -0.044381
v 0.482316 2.178538 -0.021441
v 0.451198 2.178413 -0.021271
v 0.350729 2.178012 -0.020722
v -0.299863 2.175414 -0.017166
v -0.384179 2.123849 -0.040854
v -0.386117 2.181839 -0.023467
v -0.385297 2.152931 -0.042716
v -0.386117 2.181839 -0.023467
v -0.677691 2.203403 -0.044961
v 1.691262 2.199924 -0.044961
vn 0.1562 -0.7009 0.6959
vn 0.9202 -0.1019 0.3779
vn -0.0077 0.5981 0.8014
vn 0.0398 -0.6157 0.7869
vn 0.0095 -0.5407 0.8411
vn -0.0073 0.5965 0.8026
vn 0.0448 -0.5296 0.8470
vn 0.0039 0.5717 0.8204
vn -0.0729 -0.9972 0.0183
vn -0.0044 -0.0640 0.9979
vn -0.1016 -0.5534 -0.8267
vn -0.0408 0.9045 -0.4246
vn 1.0000 -0.0015 -0.0000
vn -0.0010 -0.7098 0.7044
vn 0.0010 0.6990 0.7151
vn -1.0000 0.0015 -0.0000
vn 0.1562 -0.7009 -0.6959
vn 0.9202 -0.1019 -0.3779
vn -0.0077 0.5981 -0.8014
vn 0.0398 -0.6157 -0.7869
vn 0.0095 -0.5407 -0.8411
vn -0.0073 0.5965 -0.8026
vn 0.0448 -0.5296 -0.8470
vn 0.0039 0.5717 -0.8204
vn -0.0729 -0.9972 -0.0183
vn -0.0044 -0.0641 -0.9979
vn -0.1016 -0.5534 0.8267
vn -0.0408 0.9045 0.4246
vn -0.0010 -0.7099 -0.7043
vn 0.0010 0.6990 -0.7151
vt 0.440155 0.567296
vt 0.451548 0.559251
vt 0.434600 0.556893
vt 0.478531 0.562701
vt 0.567155 0.567256
vt 0.560129 0.559586
vt 0.439078 0.550898
vt 0.450471 0.542853
vt 0.438906 0.580165
vt 0.000000 0.000000
vt 0.563487 0.559143
vt 0.564648 0.563418
vt 0.561855 0.566858
vt 0.555852 0.560860
vt 0.554210 0.554710
vt 0.539562 0.567364
vt 0.527097 0.559107
vt 0.536417 0.553749
vt 0.566388 0.570003
vt 0.562424 0.574510
vt 0.562591 0.576460
vt 0.556668 0.576802
vt 0.528203 0.576590
vt 0.439531 0.573731
vt 0.477598 0.574477
vt 0.436946 0.555770
vt 0.437006 0.552694
vt 0.435953 0.542270
vt 0.000000 0.000000
vt 0.424420 0.567720
vt 0.435910 0.565174
vt 0.436412 0.559567
vt 0.425498 0.574647
vt 0.437182 0.573424
vt 0.000000 0.000000
vt 0.587691 0.575700
vt 0.933309 0.092954
vt 0.587691 0.585774
vt 0.587691 0.580675
vt 0.954682 0.135165
vt 0.930517 0.098801
vt 0.808266 0.575700
vt 0.907252 0.135871
vt 0.808266 0.585774
vt 0.808266 0.580675
vt 0.587691 0.587410
vt 0.929191 0.177675
vt 0.929719 0.176319
vt 0.808267 0.587410
vt 0.440155 0.567296
vt 0.451548 0.559251
vt 0.434600 0.556893
vt 0.478531 0.562701
vt 0.567155 0.567256
vt 0.560129 0.559586
vt 0.561855 0.566858
vt 0.555852 0.560860
vt 0.539562 0.567364
vt 0.527097 0.559107
vt 0.562424 0.574510
vt 0.562591 0.576460
vt 0.556668 0.576802
vt 0.528203 0.576590
vt 0.439531 0.573731
vt 0.477598 0.574477
vt 0.436946 0.555770
vt 0.437006 0.552694
vt 0.000000 0.000000
vt 0.424420 0.567720
vt 0.435910 0.565174
vt 0.436412 0.559567
vt 0.425498 0.574647
vt 0.437182 0.573424
vt 0.587691 0.585774
vt 0.587691 0.580675
vt 0.954682 0.135165
vt 0.907252 0.135871
vt 0.808266 0.585774
vt 0.808266 0.580675
s 0
usemtl Material.207
f 7/15/1 5/11/1 2/5/1 6/13/1
f 2/6/2 5/12/2 10/19/2 11/20/2
f 2/6/3 11/21/3 12/22/3 6/14/3
f 9/18/4 7/15/4 6/13/4 8/16/4
f 3/7/5 9/18/5 8/16/5 1/1/5
f 6/14/6 12/22/6 13/23/6 8/17/6
f 3/8/7 1/2/7 15/26/7 16/28/7
f 8/17/8 13/23/8 14/24/8 19/33/8 18/30/8 1/3/8
f 14/24/9 19/33/9 4/9/9
f 18/31/10 15/27/10 1/4/10
f 18/32/11 19/34/11 14/25/11 1/4/11
f 20/35/12 17/29/12 4/10/12
f 23/41/13 26/48/13 24/43/13
f 23/42/14 24/44/14 22/38/14 21/36/14
f 26/49/15 25/46/15 22/39/15 24/45/15
f 21/37/16 22/40/16 25/47/16
f 7/15/17 29/56/17 28/54/17 5/11/17
f 28/55/18 31/60/18 10/19/18 5/12/18
f 28/55/19 29/57/19 32/62/19 31/61/19
f 9/18/20 30/58/20 29/56/20 7/15/20
f 3/7/21 27/50/21 30/58/21 9/18/21
f 29/57/22 30/59/22 33/63/22 32/62/22
f 3/8/23 16/28/23 35/66/23 27/51/23
f 30/59/24 27/52/24 37/69/24 38/72/24 34/64/24 33/63/24
f 34/64/25 4/9/25 38/72/25
f 37/70/26 27/53/26 35/67/26
f 37/71/27 27/53/27 34/65/27 38/73/27
f 20/35/28 4/10/28 36/68/28
f 23/41/13 40/77/13 26/48/13
f 23/42/29 21/36/29 39/74/29 40/78/29
f 26/49/30 40/79/30 39/75/30 25/46/30
f 21/37/16 25/47/16 39/76/16
o Lever
v -0.897888 2.131483 0.015621
v -0.768450 2.218164 0.001467
v -0.902590 2.128559 0.001467
v -0.900466 2.161183 0.001467
v -0.867001 2.165491 0.001467
v -0.897888 2.131483 -0.012686
vn -0.9979 0.0650 -0.0000
vn -0.2369 0.5488 0.8017
vn -0.2369 0.5488 -0.8017
vt 0.405900 0.549614
vt 0.596996 0.578656
vt 0.648913 0.583928
vt 0.392953 0.546486
vt 0.393778 0.572062
vt 0.600675 0.590849
vt 0.611299 0.584671
vt 0.384753 0.552038
vt 0.596996 0.578656
s 0
usemtl Material.207
f 43/83/31 41/80/31 44/84/31 46/87/31
f 45/86/32 44/85/32 41/81/32 42/82/32
f 45/86/33 42/82/33 46/88/33 44/85/33
o ShellLowPolyGreen.004
v -0.551621 1.832047 0.024032
v -0.551621 2.012362 0.024032
v -0.575653 1.832047 0.000000
v -0.575653 2.012362 0.000000
v -0.527589 1.832047 0.000000
v -0.527589 2.012362 0.000000
v -0.551621 1.883112 0.024032
v -0.527589 1.883112 0.000000
v -0.575653 1.883112 0.000000
v -0.551621 1.832047 -0.024032
v -0.551621 2.012362 -0.024032
v -0.551621 1.883112 -0.024032
vn 0.7071 -0.0000 0.7071
vn -0.0000 -1.0000 -0.0000
vn -0.0000 1.0000 -0.0000
vn -0.7071 -0.0000 0.7071
vn 0.7071 -0.0000 -0.7071
vn -0.7071 -0.0000 -0.7071
vt 0.821587 0.484619
vt 0.183923 0.104482
vt 0.002034 0.104482
vt 0.625000 0.750000
vt 0.758309 0.818041
vt 0.525350 0.311899
vt 0.013595 0.105289
vt 0.875000 0.625000
vt 0.529300 0.818041
vt 0.984330 0.177612
vt 0.172362 0.103675
vt 0.987318 0.818041
vt 0.625000 0.625000
vt 0.758309 0.515532
vt 0.185638 0.466411
vt 0.003749 0.466411
vt 0.987318 0.515532
vt 0.174077 0.465604
vt 0.529300 0.515532
vt 0.015310 0.467218
vt 0.821587 0.484619
vt 0.183923 0.104482
vt 0.002034 0.104482
vt 0.625000 0.750000
vt 0.758309 0.818041
vt 0.758309 0.515532
vt 0.185638 0.466411
vt 0.003749 0.466411
s 0
usemtl Material.208
f 54/105/34 52/100/34 48/93/34 53/102/34
f 49/94/35 51/98/35 47/89/35
f 52/101/36 50/96/36 48/92/36
f 53/102/37 48/93/37 50/97/37 55/107/37
f 47/90/37 53/103/37 55/108/37 49/95/37
f 51/99/34 54/106/34 53/104/34 47/91/34
f 54/105/38 58/114/38 57/113/38 52/100/38
f 49/94/35 56/109/35 51/98/35
f 52/101/36 57/112/36 50/96/36
f 58/114/39 55/107/39 50/97/39 57/113/39
f 56/110/39 49/95/39 55/108/39 58/115/39
f 51/99/38 56/111/38 58/116/38 54/106/38
o ShellLowPolyRed.004
v -0.491991 2.012432 -0.024250
v -0.491991 1.831865 -0.024250
v -0.467740 2.012432 0.000000
v -0.467740 1.831865 0.000000
v -0.516241 2.012432 0.000000
v -0.516241 1.831865 0.000000
v -0.491991 1.882907 -0.024250
v -0.516241 1.882907 0.000000
v -0.467740 1.882907 0.000000
v -0.491991 2.012432 0.024251
v -0.491991 1.831865 0.024251
v -0.491991 1.882907 0.024251
vn -0.7071 -0.0000 -0.7071
vn -0.0000 1.0000 -0.0000
vn -0.0000 -1.0000 -0.0000
vn 0.7071 -0.0000 -0.7071
vn -0.7071 -0.0000 0.7071
vn 0.7071 -0.0000 0.7071
vt 0.238621 1.001621
vt 0.248625 0.890355
vt 0.018398 0.466638
vt 0.761304 0.001869
vt 0.020464 0.121861
vt 0.495392 0.936879
vt 0.495386 0.890355
vt 0.994736 0.241086
vt 0.231272 0.121861
vt 0.008178 0.941105
vt 0.001864 0.890355
vt 0.229197 0.468648
vt 0.519943 0.238291
vt 0.021755 0.114614
vt 0.020464 0.473901
vt 0.248625 0.511575
vt 0.232554 0.116624
vt 0.001864 0.511575
vt 0.231272 0.473901
vt 0.495386 0.511575
vt 0.238621 1.001621
vt 0.248625 0.890355
vt 0.018398 0.466638
vt 0.761304 0.001869
vt 0.020464 0.121861
vt 0.021755 0.114614
vt 0.020464 0.473901
vt 0.248625 0.511575
s 0
usemtl Material.209
f 66/133/40 65/130/40 60/119/40 64/128/40
f 61/122/41 59/117/41 63/126/41
f 64/129/42 60/120/42 62/124/42
f 65/131/43 67/135/43 62/125/43 60/121/43
f 59/118/43 61/123/43 67/136/43 65/132/43
f 63/127/40 59/118/40 65/132/40 66/134/40
f 66/133/44 64/128/44 69/139/44 70/142/44
f 61/122/41 63/126/41 68/137/41
f 64/129/42 62/124/42 69/140/42
f 70/143/45 69/141/45 62/125/45 67/135/45
f 68/138/45 70/144/45 67/136/45 61/123/45
f 63/127/44 66/134/44 70/144/44 68/138/44
o Shotgun.001
v -0.350013 2.138106 0.040820
v -2.192529 1.722808 0.081976
v -1.392409 1.741401 -0.000471
v -1.331741 1.925721 0.074097
v -1.266528 1.867505 0.061098
v -0.819433 2.122082 0.045189
v -0.726374 2.204987 0.040974
v -0.672397 2.076046 0.035235
v -0.678715 2.203106 0.043370
v -1.275721 1.719370 -0.000471
v -0.935837 1.987036 -0.000471
v -1.104218 1.888787 -0.000549
v -0.678375 2.248312 -0.000471
v -2.190713 1.494076 -0.000549
v -2.198040 1.951541 -0.000471
v -1.409341 1.813956 -0.000471
v -1.337278 2.068750 -0.000471
v -1.248212 1.990094 -0.000471
v -0.949880 2.097330 -0.000471
v -0.721318 2.249228 -0.000471
v -0.809195 2.030737 -0.000471
v -0.679452 2.057295 -0.000549
v -0.837500 1.947625 0.005028
v -0.850055 2.016720 -0.000171
v -0.844402 1.941317 -0.000171
v -0.759321 1.911249 0.005167
v -0.756421 1.900975 -0.000171
v -0.680857 1.933982 0.005167
v -0.675757 1.925907 -0.000171
v -0.655348 1.989224 0.004942
v -0.647158 1.996305 -0.000171
v -0.717275 2.049555 -0.000171
v -0.832328 2.001860 0.006138
v -0.685154 2.046772 0.003825
v -0.384604 2.123910 0.039542
v -0.383324 2.064831 -0.000471
v -0.385771 2.153148 -0.000471
v -0.385765 2.152990 0.041404
v -0.385770 2.153148 -0.000471
v -0.678375 2.248312 -0.000471
v -0.678629 2.159701 -0.000471
v -0.385768 2.182328 0.021941
v -0.350013 2.138106 -0.041762
v -2.192529 1.722808 -0.082918
v -1.331741 1.925721 -0.075038
v -1.266528 1.867505 -0.062040
v -0.819433 2.122082 -0.046131
v -0.726374 2.204987 -0.041916
v -0.672397 2.076046 -0.036177
v -0.678715 2.203106 -0.044312
v -1.104218 1.888787 -0.000393
v -2.190713 1.494076 -0.000393
v -0.679452 2.057295 -0.000393
v -0.837500 1.947625 -0.005970
v -0.850055 2.016720 -0.000771
v -0.844402 1.941317 -0.000771
v -0.759321 1.911249 -0.006109
v -0.756421 1.900975 -0.000771
v -0.680857 1.933982 -0.006109
v -0.675757 1.925907 -0.000771
v -0.655348 1.989224 -0.005884
v -0.647158 1.996305 -0.000771
v -0.717275 2.049555 -0.000771
v -0.832328 2.001860 -0.007079
v -0.685154 2.046772 -0.004766
v -0.384604 2.123910 -0.040484
v -0.385765 2.152990 -0.042346
v -0.385768 2.182328 -0.022882
vn -0.0677 0.3865 0.9198
vn 0.1446 -0.4409 0.8859
vn 0.4213 0.3975 0.8151
vn 0.0310 -0.0315 0.9990
vn -0.0044 -0.0641 0.9979
vn 0.3717 -0.3759 0.8489
vn -0.9996 -0.0160 0.0224
vn 0.0609 -0.6987 0.7128
vn -0.2140 -0.4350 0.8746
vn -0.0127 -0.5949 0.8037
vn -0.1662 0.4623 0.8710
vn -0.0022 -0.6900 -0.7238
vn -0.3210 0.0949 0.9423
vn -0.2240 -0.4836 0.8461
vn 0.1358 -0.4533 0.8809
vn 0.5866 -0.2513 0.7699
vn 0.2791 0.2517 0.9267
vn 0.3089 -0.5440 0.7801
vn 0.4277 -0.6435 -0.6348
vn 0.3559 -0.6659 -0.6557
vn -0.3672 -0.0857 0.9262
vn -0.0716 -0.3790 0.9226
vn -0.4070 0.5703 0.7135
vn 0.3699 -0.4563 -0.8093
vn 0.0710 0.9975 0.0037
vn 0.0159 0.7106 -0.7035
vn 0.9997 0.0245 -0.0053
vn -0.0997 -0.5501 -0.8291
vn -0.0148 0.6091 -0.7930
vn -1.0000 0.0029 -0.0048
vn -0.0677 0.3865 -0.9198
vn 0.1446 -0.4409 -0.8859
vn 0.4213 0.3975 -0.8151
vn 0.0310 -0.0315 -0.9990
vn -0.0044 -0.0641 -0.9979
vn 0.3717 -0.3759 -0.8489
vn -0.9996 -0.0160 -0.0224
vn 0.0609 -0.6987 -0.7128
vn -0.2140 -0.4350 -0.8746
vn -0.0127 -0.5949 -0.8037
vn -0.1662 0.4623 -0.8710
vn -0.0022 -0.6900 0.7238
vn -0.3210 0.0949 -0.9423
vn -0.2240 -0.4836 -0.8461
vn 0.1358 -0.4533 -0.8809
vn 0.5866 -0.2513 -0.7699
vn 0.2791 0.2517 -0.9267
vn 0.3089 -0.5440 -0.7801
vn 0.4277 -0.6435 0.6348
vn 0.3559 -0.6659 0.6557
vn -0.3672 -0.0857 -0.9262
vn -0.0716 -0.3790 -0.9226
vn -0.4070 0.5703 -0.7135
vn 0.3699 -0.4563 0.8093
vn 0.0710 0.9975 -0.0037
vn 0.0159 0.7106 0.7035
vn 0.9997 0.0245 0.0053
vn -0.0997 -0.5501 0.8291
vn -0.0148 0.6090 0.7930
vn -1.0000 0.0029 0.0048
vt 0.440155 0.567296
vt 0.060346 0.463014
vt 0.254927 0.504816
vt 0.215448 0.455724
vt 0.223248 0.485771
vt 0.237216 0.482027
vt 0.242283 0.474041
vt 0.236161 0.480799
vt 0.249249 0.484485
vt 0.243338 0.479570
vt 0.346231 0.570896
vt 0.332002 0.564510
vt 0.341055 0.539766
vt 0.335326 0.558318
vt 0.334878 0.571613
vt 0.327772 0.547063
vt 0.354270 0.553293
vt 0.370361 0.544972
vt 0.334745 0.571420
vt 0.349988 0.550275
vt 0.376323 0.552078
vt 0.364216 0.556660
vt 0.346344 0.574876
vt 0.374934 0.577993
vt 0.342218 0.546806
vt 0.378250 0.577735
vt 0.321714 0.547747
vt 0.386861 0.565897
vt 0.363439 0.563326
vt 0.607743 0.578349
vt 0.235421 0.448218
vt 0.306431 0.526098
vt 0.268425 0.500126
vt 0.342549 0.570435
vt 0.607759 0.581746
vt 0.069988 0.403134
vt 0.295550 0.537205
vt 0.067102 0.504730
vt 0.237385 0.464502
vt 0.212967 0.471584
vt 0.216344 0.469741
vt 0.212967 0.472812
vt 0.219381 0.535073
vt 0.207560 0.526166
vt 0.238673 0.511541
vt 0.238039 0.508162
vt 0.296189 0.543773
vt 0.336538 0.544721
vt 0.307093 0.554609
vt 0.312468 0.541625
vt 0.308556 0.548417
vt 0.331622 0.560075
vt 0.354756 0.578412
vt 0.372442 0.563899
vt 0.346985 0.546590
vt 0.338592 0.568163
vt 0.332756 0.540205
vt 0.375612 0.548339
vt 0.361250 0.553609
vt 0.371395 0.551761
vt 0.371395 0.568163
vt 0.338592 0.551761
vt 0.371395 0.551761
vt 0.371395 0.568163
vt 0.371395 0.551761
vt 0.371395 0.568163
vt 0.371395 0.551761
vt 0.371395 0.568163
vt 0.371395 0.551761
vt 0.371395 0.568163
vt 0.354993 0.568163
vt 0.371395 0.568163
vt 0.425553 0.563815
vt 0.424560 0.550315
vt 0.324317 0.571441
vt 0.425498 0.574647
vt 0.405110 0.556381
vt 0.424420 0.567720
vt 0.422083 0.557701
vt 0.366798 0.561518
vt 0.615622 0.579642
vt 0.424921 0.570940
vt 0.422081 0.572729
vt 0.405029 0.572078
vt 0.440155 0.567296
vt 0.060346 0.463014
vt 0.254927 0.504816
vt 0.223248 0.485771
vt 0.237216 0.482027
vt 0.242283 0.474041
vt 0.236161 0.480799
vt 0.249249 0.484485
vt 0.243338 0.479570
vt 0.346231 0.570896
vt 0.332002 0.564510
vt 0.341055 0.539766
vt 0.335326 0.558318
vt 0.334878 0.571613
vt 0.327772 0.547063
vt 0.354270 0.553293
vt 0.370361 0.544972
vt 0.334745 0.571420
vt 0.349988 0.550275
vt 0.376323 0.552078
vt 0.364216 0.556660
vt 0.346344 0.574876
vt 0.374934 0.577993
vt 0.342218 0.546806
vt 0.378250 0.577735
vt 0.321714 0.547747
vt 0.386861 0.565897
vt 0.363439 0.563326
vt 0.607743 0.578349
vt 0.268425 0.500126
vt 0.069988 0.403134
vt 0.295550 0.537205
vt 0.375612 0.548339
vt 0.361250 0.553609
vt 0.371395 0.551761
vt 0.371395 0.568163
vt 0.338592 0.551761
vt 0.371395 0.551761
vt 0.371395 0.568163
vt 0.371395 0.551761
vt 0.371395 0.568163
vt 0.371395 0.551761
vt 0.371395 0.568163
vt 0.371395 0.551761
vt 0.371395 0.568163
vt 0.354993 0.568163
vt 0.371395 0.568163
vt 0.425553 0.563815
vt 0.424420 0.567720
vt 0.422083 0.557701
vt 0.424921 0.570940
vt 0.422081 0.572729
vt 0.405029 0.572078
s 0
usemtl Material.207
f 87/187/46 85/182/46 72/146/46 74/149/46
f 84/180/47 86/184/47 74/149/47 72/146/47
f 88/189/48 87/188/48 74/149/48 75/150/48
f 78/164/49 79/167/49 77/159/49 76/156/49
f 71/145/50 108/222/50 79/168/50 78/165/50 105/217/50
f 80/175/51 82/177/51 75/152/51
f 72/147/52 85/183/52 84/181/52
f 106/218/53 105/217/53 78/165/53 92/202/53
f 75/151/54 74/149/54 86/185/54
f 92/203/55 78/166/55 76/155/55 91/199/55
f 75/152/56 89/191/56 88/190/56
f 83/178/57 79/169/57 77/160/57 90/196/57
f 94/206/58 95/207/58 93/205/58 103/215/58 91/200/58
f 93/205/59 95/207/59 97/209/59 96/208/59
f 96/208/60 97/209/60 99/211/60 98/210/60
f 98/210/61 99/211/61 101/213/61 100/212/61
f 100/212/62 101/213/62 92/204/62 102/214/62 104/216/62
f 82/177/63 81/176/63 91/201/63 76/156/63 75/152/63
f 77/161/64 89/192/64 90/197/64
f 76/156/65 75/152/65 89/193/65
f 75/153/66 86/186/66 73/148/66
f 80/175/67 75/154/67 73/148/67
f 76/157/68 77/162/68 90/198/68 89/194/68
f 89/195/69 77/163/69 76/158/69
f 107/220/70 79/170/70 108/222/70 112/226/70
f 107/219/71 111/224/71 79/171/71
f 106/218/72 107/220/72 112/226/72 108/222/72 105/217/72
f 112/227/73 108/223/73 79/172/73
f 79/173/74 112/228/74 107/221/74
f 79/174/75 83/179/75 111/225/75
f 87/187/76 115/232/76 114/230/76 85/182/76
f 122/259/77 114/230/77 115/232/77 86/184/77
f 88/189/78 116/233/78 115/232/78 87/188/78
f 119/247/79 117/239/79 118/242/79 120/250/79
f 113/229/80 136/276/80 119/248/80 120/251/80 137/277/80
f 80/175/81 116/235/81 121/258/81
f 114/231/82 122/260/82 85/183/82
f 106/218/83 123/261/83 119/248/83 136/276/83
f 116/234/84 86/185/84 115/232/84
f 123/262/85 91/199/85 117/238/85 119/249/85
f 116/235/86 88/190/86 89/191/86
f 83/178/87 90/196/87 118/243/87 120/252/87
f 125/265/88 91/200/88 134/274/88 124/264/88 126/266/88
f 124/264/89 127/267/89 128/268/89 126/266/89
f 127/267/90 129/269/90 130/270/90 128/268/90
f 129/269/91 131/271/91 132/272/91 130/270/91
f 131/271/92 135/275/92 133/273/92 123/263/92 132/272/92
f 121/258/93 116/235/93 117/239/93 91/201/93 81/176/93
f 118/244/94 90/197/94 89/192/94
f 117/239/95 89/193/95 116/235/95
f 116/236/96 73/148/96 86/186/96
f 80/175/97 73/148/97 116/237/97
f 117/240/98 89/194/98 90/198/98 118/245/98
f 89/195/99 117/241/99 118/246/99
f 107/220/100 138/279/100 137/277/100 120/253/100
f 107/219/101 120/254/101 111/224/101
f 106/218/102 136/276/102 137/277/102 138/279/102 107/220/102
f 138/280/103 120/255/103 137/278/103
f 120/256/104 107/221/104 138/281/104
f 120/257/105 111/225/105 83/179/105
l 107 109
l 111 123
l 92 110
l 111 92
l 123 110
o Trigger.002
v -0.774406 2.038017 -0.000471
v -0.766272 1.925636 -0.000471
v -0.747796 2.043744 -0.000471
v -0.780233 1.936471 -0.000471
v -0.792648 1.981761 -0.000471
v -0.764143 2.033786 -0.000471
v -0.787048 1.931404 -0.000471
v -0.783416 1.985521 -0.000471
vn -0.0000 -0.0000 1.0000
vt 0.329930 0.541969
vt 0.340954 0.550595
vt 0.329930 0.573975
vt 0.369612 0.553172
vt 0.345933 0.541969
vt 0.348651 0.543122
vt 0.345933 0.573975
vt 0.348651 0.580551
vt 0.340310 0.566127
vt 0.358008 0.543122
vt 0.368968 0.568704
vt 0.358008 0.580551
s 0
usemtl Material.207
f 145/290/106 140/283/106 142/285/106 146/292/106
f 139/282/106 143/286/106 144/288/106 141/284/106
f 143/287/106 145/291/106 146/293/106 144/289/106
