# Blender 3.3.1
# www.blender.org
mtllib DBSawedOffShotgun.mtl
o Body.002
v -1.239847 0.193275 0.000000
v -1.291768 0.466933 0.000000
v -0.440940 0.464331 0.000000
v -0.442614 0.599845 0.041224
v -0.442614 0.583824 0.000000
v -1.401024 0.187205 0.000000
v -1.391078 0.390131 0.000000
v -1.150537 0.328916 0.000000
v -0.683769 0.616533 0.074041
v -0.892946 0.435840 0.000000
v -0.684043 0.580091 0.037825
v -0.683933 0.591069 0.046134
v -1.265807 0.330104 0.057649
v -0.441778 0.505576 0.041224
v -1.441164 0.284607 0.000000
v -0.952591 0.480674 0.060936
v -0.796419 0.485943 0.040285
v -0.683769 0.653838 0.037342
v -0.683769 0.653383 0.000000
v -0.915532 0.307571 0.010260
v -0.791923 0.321147 0.013703
v -0.976355 0.332891 0.000000
v -0.965817 0.336203 0.010260
v -0.918326 0.296885 0.000000
v -0.781994 0.316307 0.003317
v -1.004438 0.389872 0.000000
v -0.973724 0.410685 0.010260
v -0.745996 0.374120 0.010260
v -0.736067 0.372686 0.000000
v -0.792067 0.448934 0.010260
v -0.770060 0.446895 0.000000
v -0.442614 0.599845 -0.041223
v -0.683769 0.616533 -0.074040
v -0.684043 0.580091 -0.037825
v -0.683933 0.591069 -0.046133
v -1.265807 0.330104 -0.057649
v -0.441778 0.505576 -0.041223
v -0.952591 0.480674 -0.060936
v -0.796419 0.485943 -0.040284
v -0.683769 0.653838 -0.037341
v -0.915532 0.307571 -0.010260
v -0.791923 0.321147 -0.013703
v -0.965817 0.336203 -0.010260
v -0.781994 0.316307 -0.003316
v -0.973724 0.410685 -0.010260
v -0.745996 0.374120 -0.010260
v -0.792067 0.448934 -0.010260
vn 0.2203 -0.4178 0.8814
vn 0.2080 0.4604 0.8630
vn 0.2101 0.4774 0.8532
vn 0.1872 0.4986 0.8464
vn 0.2210 0.4584 0.8608
vn -0.1802 0.3128 0.9326
vn -0.9998 0.0182 -0.0107
vn -0.0650 0.8762 -0.4775
vn 0.0083 -0.0340 0.9994
vn 0.0402 -0.6884 0.7242
vn 0.3737 -0.5343 0.7582
vn 0.2176 -0.6723 0.7076
vn 0.9999 0.0117 0.0020
vn -0.2511 0.6788 0.6900
vn -0.2932 0.9560 -0.0116
vn 0.3774 0.6324 -0.6766
vn -0.0833 0.7824 -0.6172
vn 0.3918 0.1073 -0.9138
vn -0.5760 0.4413 -0.6881
vn -0.5395 -0.2898 -0.7905
vn 0.2203 -0.4178 -0.8814
vn -0.0145 0.3859 0.9224
vn 0.2080 0.4604 -0.8630
vn 0.2210 0.4584 -0.8608
vn 0.1872 0.4986 -0.8464
vn 0.2101 0.4774 -0.8532
vn 0.3747 -0.0235 0.9268
vn 0.6222 -0.2411 0.7448
vn 0.7740 0.0041 0.6332
vn -0.1802 0.3128 -0.9326
vn -0.9998 0.0180 0.0105
vn -0.0650 0.8762 0.4775
vn 0.0083 -0.0340 -0.9994
vn 0.0402 -0.6884 -0.7243
vn 0.3737 -0.5343 -0.7582
vn 0.0145 -0.3859 0.9224
vn -0.1827 -0.2532 0.9500
vn -0.3473 0.4038 0.8464
vn 0.1648 -0.4977 0.8516
vn 0.2176 -0.6723 -0.7076
vn 0.9999 0.0117 -0.0020
vn -0.2511 0.6788 -0.6900
vn -0.2932 0.9560 0.0116
vn 0.3774 0.6324 0.6766
vn -0.0833 0.7824 0.6171
vn 0.3918 0.1073 0.9138
vn -0.5760 0.4413 0.6881
vn -0.5395 -0.2898 0.7905
vt 0.224131 0.464473
vt 0.229288 0.315632
vt 0.237261 0.334966
vt 0.219367 0.527097
vt 0.283703 0.551928
vt 0.381943 0.538399
vt 0.375000 0.625000
vt 0.381623 0.649772
vt 0.625000 0.750000
vt 0.625000 0.625000
vt 0.196744 0.412363
vt 0.200238 0.349419
vt 0.197714 0.354036
vt 0.195395 0.568408
vt 0.196970 0.585342
vt 0.246353 0.427109
vt 0.735316 0.750000
vt 0.335543 0.653885
vt 0.295574 0.529379
vt 0.680158 0.625000
vt 0.680158 0.750000
vt 0.335512 0.630823
vt 0.231425 0.467277
vt 0.224327 0.428085
vt 0.381783 0.572296
vt 0.500000 0.750000
vt 0.197342 0.469689
vt 0.284177 0.551830
vt 0.314018 0.556161
vt 0.331803 0.664268
vt 0.323030 0.581039
vt 0.324789 0.650992
vt 0.360008 0.554728
vt 0.383627 0.565885
vt 0.348386 0.575537
vt 0.350399 0.578259
vt 0.359474 0.545945
vt 0.385524 0.561907
vt 0.343020 0.622367
vt 0.348889 0.639471
vt 0.392403 0.609420
vt 0.363965 0.559689
vt 0.394300 0.608243
vt 0.365862 0.558511
vt 0.355162 0.621176
vt 0.359367 0.619500
vt 0.381623 0.649772
vt 0.625000 0.750000
vt 0.735316 0.750000
vt 0.335543 0.653885
vt 0.680158 0.625000
vt 0.680158 0.750000
vt 0.335512 0.630823
vt 0.232061 0.362527
vt 0.224327 0.428085
vt 0.381783 0.572296
vt 0.500000 0.750000
vt 0.284177 0.551830
vt 0.314018 0.556161
vt 0.331803 0.664268
vt 0.323030 0.581039
vt 0.360008 0.554728
vt 0.383627 0.565885
vt 0.350399 0.578259
vt 0.385524 0.561907
vt 0.348889 0.639471
vt 0.392403 0.609420
vt 0.363965 0.559689
vt 0.355162 0.621176
s 0
usemtl Material.187
f 17/29/1 12/22/1 9/18/1 16/28/1
f 13/24/2 2/4/3 7/14/4 15/27/5
f 16/28/6 9/18/6 2/4/6 13/24/6
f 11/20/7 9/17/7 12/21/7
f 5/10/8 11/20/8 12/21/8 4/9/8
f 14/25/9 4/8/9 12/22/9 17/29/9
f 3/6/10 14/25/10 17/29/10 10/19/10
f 8/16/11 16/28/11 13/24/11 1/2/11
f 10/19/12 17/29/12 16/28/12 8/16/12
f 3/7/13 5/10/13 4/9/13 14/26/13
f 9/18/14 18/30/14 2/4/14
f 18/31/15 19/32/15 2/5/15
f 20/33/16 24/37/16 22/35/16 23/36/16
f 20/33/17 21/34/17 25/38/17 24/37/17
f 23/36/18 22/35/18 26/39/18 27/40/18
f 25/38/19 21/34/19 28/41/19 29/43/19
f 29/44/20 28/42/20 30/45/20 31/46/20
f 39/59/21 38/58/21 33/50/21 35/53/21
f 1/1/22 36/54/22 6/11/22
f 36/55/23 15/27/24 7/15/25 2/4/26
f 6/13/27 36/55/28 15/27/29
f 38/58/30 36/55/30 2/4/30 33/50/30
f 34/51/31 35/52/31 33/49/31
f 5/10/32 32/48/32 35/52/32 34/51/32
f 37/56/33 39/59/33 35/53/33 32/47/33
f 3/6/34 10/19/34 39/59/34 37/56/34
f 8/16/35 1/2/35 36/55/35 38/58/35
f 1/3/36 13/23/36 6/12/36
f 6/13/37 13/24/38 15/27/39
f 10/19/40 8/16/40 38/58/40 39/59/40
f 3/7/41 37/57/41 32/48/41 5/10/41
f 33/50/42 2/4/42 40/60/42
f 40/61/43 2/5/43 19/32/43
f 41/62/44 43/64/44 22/35/44 24/37/44
f 41/62/45 24/37/45 44/65/45 42/63/45
f 43/64/46 45/66/46 26/39/46 22/35/46
f 44/65/47 29/43/47 46/67/47 42/63/47
f 29/44/48 31/46/48 47/69/48 46/68/48
o HandGaurd&Barrel.001
v -0.440837 0.464000 -0.000010
v -0.442583 0.599804 0.040785
v 0.332573 0.514187 -0.000010
v 0.332573 0.604015 0.061266
v -0.442583 0.599804 -0.000010
v 0.332573 0.616390 -0.000010
v -0.441710 0.505212 0.040785
v 0.332573 0.559101 0.061266
v 0.374382 0.559101 -0.000010
v -0.441710 0.531902 -0.000010
v -0.253122 0.476181 -0.000010
v -0.254444 0.600825 0.061266
v -0.254444 0.600825 -0.000010
v -0.253783 0.538503 0.061266
v -0.683711 0.616515 0.074426
v -0.683711 0.616515 0.074426
v 0.416987 0.616515 0.074426
v -0.683711 0.579041 0.037076
v -0.683711 0.653991 0.037076
v -0.683711 0.579041 0.037076
v -0.683711 0.653991 0.037076
v 0.416987 0.579041 0.037076
v 0.416987 0.653991 0.037076
v -0.683711 0.616515 -0.000010
v -0.683711 0.616515 -0.000010
v 0.416987 0.616515 -0.000010
v -0.683406 0.653851 0.017968
v 0.416467 0.653851 0.017968
v -0.683406 0.634684 0.017968
v 0.416467 0.634684 0.017968
v -0.683406 0.653851 -0.000010
v 0.416467 0.653851 -0.000010
v -0.442583 0.599804 -0.040805
v 0.332573 0.604015 -0.061287
v -0.441710 0.505212 -0.040805
v 0.332573 0.559101 -0.061287
v -0.254444 0.600825 -0.061287
v -0.253783 0.538503 -0.061287
v -0.683711 0.616515 -0.074446
v -0.683711 0.616515 -0.074446
v 0.416987 0.616515 -0.074446
v -0.683711 0.579041 -0.037097
v -0.683711 0.653991 -0.037097
v -0.683711 0.579041 -0.037097
v -0.683711 0.653991 -0.037097
v 0.416987 0.579041 -0.037097
v 0.416987 0.653991 -0.037097
v -0.683406 0.653851 -0.017990
v 0.416467 0.653851 -0.017990
v -0.683406 0.634684 -0.017990
v 0.416467 0.634684 -0.017990
vn 0.8725 0.3569 0.3337
vn -0.1082 -0.0011 0.9941
vn -0.0054 1.0000 -0.0000
vn -0.9999 -0.0107 -0.0035
vn -0.9999 -0.0129 -0.0084
vn 0.0460 -0.7010 0.7117
vn 0.6548 -0.6096 0.4468
vn 0.0376 -0.7519 0.6582
vn -0.0159 0.9948 0.1005
vn -0.0000 -0.0000 1.0000
vn -0.0000 -0.7059 0.7083
vn -0.0000 0.7059 0.7083
vn -0.0000 1.0000 -0.0001
vn -0.0000 -0.0000 -1.0000
vn -0.0000 1.0000 -0.0000
vn -0.0000 -0.7034 -0.7108
vn -0.0000 0.7034 -0.7108
vn -1.0000 -0.0000 -0.0000
vn 1.0000 -0.0000 -0.0000
vn 0.8725 0.3569 -0.3337
vn -0.1082 -0.0011 -0.9941
vn -0.9999 -0.0107 0.0035
vn -0.9999 -0.0129 0.0084
vn 0.0460 -0.7010 -0.7117
vn 0.6548 -0.6096 -0.4468
vn 0.0376 -0.7519 -0.6582
vn -0.0159 0.9948 -0.1005
vn -0.0000 -0.7059 -0.7083
vn -0.0000 0.7059 -0.7083
vn 0.0003 1.0000 -0.0001
vn 0.0003 1.0000 -0.0000
vn -0.0000 -0.7034 0.7108
vn -0.0000 0.7034 0.7108
vt 0.357809 0.580881
vt 0.406634 0.547673
vt 0.408030 0.626125
vt 0.875000 0.750000
vt 0.411370 0.688962
vt 0.568784 0.600343
vt 0.625000 0.750000
vt 0.569528 0.664854
vt 0.875000 0.625000
vt 0.388449 0.707987
vt 0.569528 0.662409
vt 0.625000 0.625000
vt 0.370840 0.634922
vt 0.406464 0.582164
vt 0.569528 0.627265
vt 0.577663 0.627265
vt 0.367918 0.675453
vt 0.455810 0.565335
vt 0.814322 0.750000
vt 0.455800 0.653650
vt 0.814322 0.625000
vt 0.455433 0.610026
vt 0.643427 0.691205
vt 0.125000 0.750000
vt 0.875000 0.750000
vt 0.125000 0.750000
vt 0.875000 0.750000
vt 0.739229 0.301636
vt 0.872246 0.691205
vt 0.740015 0.311500
vt 0.125000 0.625000
vt 0.760668 0.209117
vt 0.875000 0.625000
vt 0.760668 0.428024
vt 0.643427 0.666041
vt 0.598644 0.662271
vt 0.125000 0.625000
vt 0.643427 0.716370
vt 0.598644 0.716938
vt 0.875000 0.625000
vt 0.872246 0.666041
vt 0.843336 0.658004
vt 0.761679 0.218013
vt 0.872246 0.716370
vt 0.843336 0.712671
vt 0.761679 0.404987
vt 0.598644 0.689605
vt 0.125000 0.750000
vt 0.875000 0.750000
vt 0.125000 0.750000
vt 0.875000 0.750000
vt 0.784470 0.301636
vt 0.843336 0.685338
vt 0.783342 0.311500
vt 0.395977 0.598572
vt 0.371202 0.587187
vt 0.396297 0.612721
vt 0.367672 0.602516
vt 0.396732 0.584338
vt 0.367843 0.573192
vt 0.408030 0.626125
vt 0.875000 0.750000
vt 0.411370 0.688962
vt 0.625000 0.750000
vt 0.569528 0.664854
vt 0.370840 0.634922
vt 0.406464 0.582164
vt 0.569528 0.627265
vt 0.814322 0.750000
vt 0.455800 0.653650
vt 0.455433 0.610026
vt 0.643427 0.691205
vt 0.125000 0.750000
vt 0.875000 0.750000
vt 0.125000 0.750000
vt 0.875000 0.750000
vt 0.739229 0.301636
vt 0.872246 0.691205
vt 0.740015 0.311500
vt 0.125000 0.625000
vt 0.760668 0.209117
vt 0.875000 0.625000
vt 0.760668 0.428024
vt 0.643427 0.666041
vt 0.598644 0.662271
vt 0.125000 0.625000
vt 0.643427 0.716370
vt 0.598644 0.716938
vt 0.875000 0.625000
vt 0.872246 0.666041
vt 0.843336 0.658004
vt 0.761679 0.218013
vt 0.872246 0.716370
vt 0.843336 0.712671
vt 0.761679 0.404987
vt 0.395977 0.598572
vt 0.371202 0.587187
vt 0.396297 0.612721
vt 0.367672 0.602516
s 0
usemtl Material.188
f 56/85/49 53/80/49 51/77/49 55/84/49
f 61/91/50 59/89/50 49/72/50 54/83/50
f 60/90/51 52/78/51 49/73/51 59/88/51
f 54/82/52 49/74/52 52/79/52 57/86/52
f 48/70/53 54/82/53 57/86/53
f 58/87/54 61/91/54 54/83/54 48/71/54
f 50/75/55 56/85/55 55/84/55
f 50/75/56 55/84/56 61/91/56 58/87/56
f 53/81/57 60/90/57 59/88/57 51/76/57
f 55/84/58 51/77/58 59/89/58 61/91/58
f 67/104/59 69/110/59 64/98/59 62/92/59
f 70/113/60 68/107/60 62/92/60 64/98/60
f 67/106/61 62/93/62 63/95/63 65/100/62
f 62/94/63 68/109/62 66/102/61 63/96/62
f 67/105/64 71/116/64 73/122/64 69/111/64
f 70/114/65 73/122/65 71/116/65 68/108/65
f 67/106/58 65/100/63 72/119/58 71/117/63
f 71/118/58 72/120/63 66/102/58 68/109/63
f 75/125/58 74/124/58 76/126/58 77/127/58
f 74/124/63 75/125/63 79/129/63 78/128/63
f 66/103/66 72/121/66 65/101/66 63/97/66
f 69/112/67 73/123/67 70/115/67 64/99/67
f 56/85/68 83/137/68 81/134/68 53/80/68
f 85/140/69 82/136/69 80/130/69 84/139/69
f 60/90/51 84/138/51 80/131/51 52/78/51
f 82/135/70 57/86/70 52/79/70 80/132/70
f 48/70/71 57/86/71 82/135/71
f 58/87/72 48/71/72 82/136/72 85/140/72
f 50/75/73 83/137/73 56/85/73
f 50/75/74 58/87/74 85/140/74 83/137/74
f 53/81/75 81/133/75 84/138/75 60/90/75
f 83/137/62 85/140/62 84/139/62 81/134/62
f 91/153/76 86/141/76 88/147/76 93/159/76
f 94/162/77 88/147/77 86/141/77 92/156/77
f 91/155/62 89/149/63 87/144/62 86/142/78
f 86/143/62 87/145/61 90/151/62 92/158/79
f 91/154/80 93/160/80 73/122/80 71/116/80
f 94/163/81 92/157/81 71/116/81 73/122/81
f 91/155/63 71/117/58 72/119/63 89/149/58
f 71/118/63 92/158/58 90/151/63 72/120/58
f 96/166/62 98/168/62 97/167/62 95/165/62
f 95/165/63 78/128/63 79/129/63 96/166/63
f 90/152/66 87/146/66 89/150/66 72/121/66
f 93/161/67 88/148/67 94/164/67 73/123/67
o ShellLowPolyGreen.006
v -0.544971 0.216269 0.023853
v -0.544971 0.395239 0.023853
v -0.568824 0.216269 0.000000
v -0.568824 0.395239 0.000000
v -0.521118 0.216269 0.000000
v -0.521118 0.395239 0.000000
v -0.544971 0.266953 0.023853
v -0.521118 0.266953 0.000000
v -0.568824 0.266953 0.000000
v -0.544971 0.216269 -0.023853
v -0.544971 0.395239 -0.023853
v -0.544971 0.266953 -0.023853
vn 0.7071 -0.0000 0.7071
vn -0.0000 -1.0000 -0.0000
vn -0.0000 1.0000 -0.0000
vn -0.7071 -0.0000 0.7071
vn 0.7071 -0.0000 -0.7071
vn -0.7071 -0.0000 -0.7071
vt 0.821587 0.484619
vt 0.183923 0.104482
vt 0.002034 0.104482
vt 0.625000 0.750000
vt 0.758309 0.818041
vt 0.525350 0.311899
vt 0.013595 0.105289
vt 0.875000 0.625000
vt 0.529300 0.818041
vt 0.984330 0.177612
vt 0.172362 0.103675
vt 0.987318 0.818041
vt 0.625000 0.625000
vt 0.758309 0.515532
vt 0.185638 0.466411
vt 0.003749 0.466411
vt 0.987318 0.515532
vt 0.174077 0.465604
vt 0.529300 0.515532
vt 0.015310 0.467218
vt 0.821587 0.484619
vt 0.183923 0.104482
vt 0.002034 0.104482
vt 0.625000 0.750000
vt 0.758309 0.818041
vt 0.758309 0.515532
vt 0.185638 0.466411
vt 0.003749 0.466411
s 0
usemtl Material.189
f 106/185/82 104/180/82 100/173/82 105/182/82
f 101/174/83 103/178/83 99/169/83
f 104/181/84 102/176/84 100/172/84
f 105/182/85 100/173/85 102/177/85 107/187/85
f 99/170/85 105/183/85 107/188/85 101/175/85
f 103/179/82 106/186/82 105/184/82 99/171/82
f 106/185/86 110/194/86 109/193/86 104/180/86
f 101/174/83 108/189/83 103/178/83
f 104/181/84 109/192/84 102/176/84
f 110/194/87 107/187/87 102/177/87 109/193/87
f 108/190/87 101/175/87 107/188/87 110/195/87
f 103/179/86 108/191/86 110/196/86 106/186/86
o ShellLowPolyRed.006
v -0.485786 0.395308 -0.024068
v -0.485786 0.216089 -0.024068
v -0.461717 0.395308 0.000000
v -0.461717 0.216089 0.000000
v -0.509855 0.395308 0.000000
v -0.509855 0.216089 0.000000
v -0.485786 0.266750 -0.024068
v -0.509855 0.266750 0.000000
v -0.461717 0.266750 0.000000
v -0.485786 0.395308 0.024071
v -0.485786 0.216089 0.024071
v -0.485786 0.266750 0.024071
vn -0.7071 -0.0000 -0.7071
vn -0.0000 1.0000 -0.0000
vn -0.0000 -1.0000 -0.0000
vn 0.7071 -0.0000 -0.7071
vn -0.7071 -0.0000 0.7071
vn 0.7071 -0.0000 0.7071
vt 0.238621 1.001621
vt 0.248625 0.890355
vt 0.018398 0.466638
vt 0.761304 0.001869
vt 0.020464 0.121861
vt 0.495392 0.936879
vt 0.495386 0.890355
vt 0.994736 0.241086
vt 0.231272 0.121861
vt 0.008178 0.941105
vt 0.001864 0.890355
vt 0.229197 0.468648
vt 0.519943 0.238291
vt 0.021755 0.114614
vt 0.020464 0.473901
vt 0.248625 0.511575
vt 0.232554 0.116624
vt 0.001864 0.511575
vt 0.231272 0.473901
vt 0.495386 0.511575
vt 0.238621 1.001621
vt 0.248625 0.890355
vt 0.018398 0.466638
vt 0.761304 0.001869
vt 0.020464 0.121861
vt 0.021755 0.114614
vt 0.020464 0.473901
vt 0.248625 0.511575
s 0
usemtl Material.190
f 118/213/88 117/210/88 112/199/88 116/208/88
f 113/202/89 111/197/89 115/206/89
f 116/209/90 112/200/90 114/204/90
f 117/211/91 119/215/91 114/205/91 112/201/91
f 111/198/91 113/203/91 119/216/91 117/212/91
f 115/207/88 111/198/88 117/212/88 118/214/88
f 118/213/92 116/208/92 121/219/92 122/222/92
f 113/202/89 115/206/89 120/217/89
f 116/209/90 114/204/90 121/220/90
f 122/223/93 121/221/93 114/205/93 119/215/93
f 120/218/93 122/224/93 119/216/93 113/203/93
f 115/207/92 118/214/92 122/224/92 120/218/92
o Trigger&Trigger.001
v -0.887135 0.326670 -0.003155
v -0.895381 0.385429 -0.002650
v -0.889650 0.461913 -0.003154
v -0.835896 0.461598 -0.003154
v -0.913311 0.394017 0.000427
v -0.891125 0.421847 -0.001799
v -0.818835 0.331965 0.001868
v -0.855897 0.378302 0.002373
v -0.889977 0.447012 0.001868
v -0.843579 0.474157 0.001868
v -0.875698 0.376543 0.005449
v -0.870810 0.411797 0.003223
v -0.943811 0.578417 0.024326
v -0.725253 0.639159 0.000250
v -0.943811 0.578417 0.000250
v -0.929717 0.621195 0.000250
v -0.891101 0.599454 0.000250
v -0.909789 0.584185 0.020453
v -0.943503 0.581021 -0.023756
vn 0.0173 0.0332 0.9993
vn 0.1658 -0.0071 0.9861
vn -0.0021 0.0373 0.9993
vn 0.1462 0.0785 0.9861
vn -0.2066 0.8630 0.4611
vn -0.9498 0.3129 -0.0000
vn 0.1625 0.5388 0.8266
vn -0.9496 0.3128 0.0218
vn -0.2265 0.9460 -0.2320
vn 0.2445 0.4342 -0.8670
vt 0.359023 0.626596
vt 0.358816 0.561355
vt 0.384773 0.625089
vt 0.384567 0.559848
vt 0.371898 0.625843
vt 0.371692 0.560601
vt 0.359023 0.626596
vt 0.358816 0.561355
vt 0.384773 0.625089
vt 0.384567 0.559848
vt 0.371898 0.625843
vt 0.371692 0.560601
vt 0.379841 0.556585
vt 0.346661 0.566029
vt 0.389560 0.627715
vt 0.348322 0.605289
vt 0.369643 0.564004
vt 0.349018 0.608926
vt 0.374713 0.616391
vt 0.389871 0.634962
vt 0.356484 0.592545
vt 0.384441 0.603916
vt 0.353414 0.572913
vt 0.359975 0.575377
vt 0.396597 0.576958
s 0
usemtl Material.191
f 127/229/94 128/230/94 126/228/94 125/227/94
f 123/225/95 124/226/95 128/230/95 127/229/95
f 133/235/96 134/236/96 132/234/96 131/233/96
f 129/231/97 130/232/97 134/236/97 133/235/97
f 136/239/98 139/245/98 140/247/98
f 135/237/99 138/243/99 137/241/99
f 140/247/100 139/245/100 138/242/100 135/238/100
f 137/241/101 138/243/101 141/248/101
f 136/240/102 141/249/102 139/246/102
f 139/246/103 141/249/103 138/244/103
