# Blender 3.3.1
# www.blender.org
mtllib PumpActionShotgunShort.mtl
o PABody&Barrel
v -0.155232 2.092001 0.059035
v -0.155232 2.310121 0.030284
v -0.132947 2.092001 0.000000
v -0.132947 2.328701 0.000000
v -0.969904 2.093833 0.057124
v -0.797733 2.310121 0.028517
v -0.797733 2.328701 0.000000
v -0.969904 2.093833 0.000000
v -1.299562 2.147372 0.000000
v -1.277583 1.822755 0.000000
v -1.395458 2.064852 0.000000
v -1.429597 1.875872 0.000000
v -1.131048 2.040092 0.000000
v -0.996652 2.279097 0.000000
v -0.155232 2.210351 0.063108
v -0.132947 2.210351 0.000000
v -0.883819 2.211267 0.061341
v -1.288573 1.985064 0.059391
v -1.436669 1.982774 0.000000
v -1.063850 2.159594 0.054339
v -0.155192 2.270876 0.042250
v 1.098497 2.270876 0.042250
v -0.157216 2.222322 0.000000
v -0.132906 2.328567 0.000000
v 1.098497 2.235371 0.000000
v 1.098497 2.309448 0.000000
v -0.155481 2.153449 0.048418
v 1.099848 2.153449 0.048418
v -0.155481 2.105031 0.000000
v -0.155481 2.201867 0.000000
v 1.099848 2.105031 0.000000
v 1.099848 2.201867 0.000000
v 1.030834 2.196504 0.000000
v 1.030834 2.233387 0.000000
v -0.888038 1.989771 0.009286
v -0.808991 1.986166 0.009286
v -0.706810 2.016299 0.000000
v -0.727773 2.020316 0.009286
v -0.898498 1.978687 0.000000
v -0.803650 1.973772 0.000000
v -0.911245 2.003319 0.009286
v -0.930667 2.001773 0.000000
v -0.852035 2.094904 0.009286
v -0.971560 2.093357 0.000000
v -0.586685 2.092122 0.000000
v -0.756314 2.094435 0.009286
v -0.723301 2.056523 0.009286
v -0.652711 2.055914 0.000000
v -0.951042 2.047405 0.000000
v -0.923176 2.048952 0.009286
v -0.155232 2.092001 -0.059035
v -0.155232 2.310121 -0.030284
v -0.969904 2.093833 -0.057124
v -0.797733 2.310121 -0.028517
v -0.155232 2.210351 -0.063108
v -0.883819 2.211267 -0.061341
v -1.288573 1.985064 -0.059391
v -1.063850 2.159594 -0.054339
v -0.155192 2.270876 -0.042250
v 1.098497 2.270876 -0.042250
v -0.155481 2.153449 -0.048418
v 1.099848 2.153449 -0.048418
v -0.888038 1.989771 -0.009286
v -0.808991 1.986166 -0.009286
v -0.727773 2.020316 -0.009286
v -0.911245 2.003319 -0.009286
v -0.852035 2.094904 -0.009286
v -0.756314 2.094435 -0.009286
v -0.723301 2.056523 -0.009286
v -0.923176 2.048952 -0.009286
vn 0.8953 0.0663 0.4405
vn -0.0022 -1.0000 -0.0004
vn -0.0007 0.8455 0.5340
vn 0.3164 -0.9486 -0.0000
vn -0.0022 0.3147 0.9492
vn -0.2254 0.4029 0.8870
vn -0.1009 0.5035 0.8581
vn -0.1010 0.5035 0.8581
vn -0.1840 0.4731 0.8616
vn -0.2045 0.8201 0.5344
vn -0.1365 -0.1536 0.9787
vn 0.4437 -0.4101 0.7969
vn -0.0024 -0.0342 0.9994
vn 0.9394 -0.0059 0.3428
vn 1.0000 -0.0000 -0.0000
vn 0.0037 -0.7090 0.7052
vn 0.0051 0.6590 0.7521
vn -0.9541 0.2183 -0.2052
vn -0.0000 -0.7071 0.7071
vn -0.0000 0.7071 0.7071
vn -1.0000 -0.0000 -0.0000
vn -0.0000 -0.0000 1.0000
vn -0.2330 0.5410 -0.8081
vn 0.0302 0.6161 -0.7871
vn 0.3125 0.4724 -0.8241
vn 0.1262 -0.0695 -0.9896
vn -0.0766 0.0341 -0.9965
vn -0.1896 0.1464 -0.9709
vn 0.3555 0.1258 -0.9262
vn 0.8953 0.0663 -0.4405
vn -0.0022 -1.0000 0.0004
vn -0.0007 0.8455 -0.5340
vn -0.0022 0.3147 -0.9492
vn -0.2254 0.4029 -0.8870
vn -0.1009 0.5035 -0.8581
vn -0.1010 0.5035 -0.8581
vn -0.1840 0.4731 -0.8616
vn -0.2045 0.8201 -0.5344
vn -0.1365 -0.1536 -0.9787
vn -0.0422 -0.0913 -0.9949
vn -0.5392 0.2187 -0.8133
vn -0.0903 -0.0870 -0.9921
vn 0.4437 -0.4101 -0.7969
vn -0.0024 -0.0342 -0.9994
vn 0.9394 -0.0059 -0.3428
vn 0.0037 -0.7090 -0.7052
vn 0.0051 0.6590 -0.7521
vn -0.9541 0.2183 0.2052
vn -0.0000 -0.7071 -0.7071
vn -0.0000 0.7071 -0.7071
vn -0.2330 0.5410 0.8081
vn 0.0302 0.6161 0.7871
vn 0.3125 0.4724 0.8241
vn 0.1262 -0.0695 0.9896
vn -0.0766 0.0341 0.9965
vn -0.1896 0.1464 0.9709
vn 0.3555 0.1258 0.9262
vn -0.0674 -0.2541 0.9648
vn -0.5697 0.1579 0.8065
vn -0.5392 0.2187 0.8133
vn -0.1106 -0.0599 0.9921
vn -0.1217 -0.3483 0.9294
vn -0.4232 -0.2780 0.8623
vn 0.0018 -0.5880 -0.8089
vn -0.4232 -0.2780 -0.8623
vn -0.1217 -0.3483 -0.9294
vt 0.375495 0.634688
vt 0.467614 0.559063
vt 0.334206 0.634934
vt 0.365228 0.655662
vt 0.375302 0.685324
vt 0.467614 0.714968
vt 0.375491 0.677958
vt 0.375491 0.676756
vt 0.337074 0.602358
vt 0.369308 0.641838
vt 0.379409 0.698495
vt 0.540243 0.634933
vt 0.280467 0.532006
vt 0.298716 0.560372
vt 0.330712 0.714968
vt 0.312199 0.685324
vt 0.312199 0.698495
vt 0.540239 0.678203
vt 0.540239 0.677001
vt 0.280467 0.532006
vt 0.220206 0.541339
vt 0.223761 0.339850
vt 0.211461 0.572951
vt 0.186846 0.377503
vt 0.248144 0.521960
vt 0.250768 0.493912
vt 0.275538 0.663333
vt 0.289057 0.674765
vt 0.289712 0.663333
vt 0.467614 0.643656
vt 0.350294 0.656656
vt 0.353358 0.622302
vt 0.314714 0.644311
vt 0.221736 0.454904
vt 0.197417 0.482859
vt 0.279694 0.596559
vt 0.263153 0.578622
vt 0.748078 0.676161
vt 0.625000 0.000000
vt 0.878876 0.432896
vt 0.917960 0.676762
vt 0.467948 0.644899
vt 0.748364 0.657474
vt 0.375000 0.125000
vt 0.748060 0.701476
vt 0.625000 0.125000
vt 0.915495 0.305599
vt 0.917960 0.658271
vt 0.915495 0.571189
vt 0.917960 0.695264
vt 0.470796 0.689903
vt 0.625000 0.000000
vt 0.721501 0.581147
vt 0.537679 0.689903
vt 0.470796 0.667766
vt 0.375000 0.125000
vt 0.468135 0.609406
vt 0.470796 0.712041
vt 0.625000 0.125000
vt 0.726782 0.561605
vt 0.537679 0.667766
vt 0.725911 0.618073
vt 0.537679 0.712041
vt 0.509356 0.607190
vt 0.509356 0.644662
vt 0.329022 0.591502
vt 0.343591 0.588947
vt 0.362423 0.610306
vt 0.358560 0.613154
vt 0.327095 0.583645
vt 0.344576 0.580161
vt 0.324745 0.601106
vt 0.321166 0.600010
vt 0.335658 0.666026
vt 0.313629 0.664930
vt 0.384563 0.664055
vt 0.353300 0.665694
vt 0.359384 0.638820
vt 0.372394 0.638388
vt 0.317410 0.632356
vt 0.322546 0.633453
vt 0.375495 0.638294
vt 0.467614 0.559063
vt 0.334206 0.634934
vt 0.365228 0.655662
vt 0.375302 0.685324
vt 0.379813 0.714968
vt 0.540243 0.638539
vt 0.280467 0.532006
vt 0.298716 0.560372
vt 0.330712 0.714968
vt 0.312199 0.685324
vt 0.379813 0.643656
vt 0.467614 0.643656
vt 0.350294 0.656656
vt 0.314714 0.644311
vt 0.221736 0.454904
vt 0.279694 0.596559
vt 0.263153 0.578622
vt 0.748078 0.676161
vt 0.625000 0.000000
vt 0.878876 0.432896
vt 0.917960 0.676762
vt 0.470796 0.689903
vt 0.625000 0.000000
vt 0.721501 0.581147
vt 0.537679 0.689903
vt 0.329022 0.591502
vt 0.343591 0.588947
vt 0.358560 0.613154
vt 0.324745 0.601106
vt 0.335658 0.666026
vt 0.353300 0.665694
vt 0.359384 0.638820
vt 0.322546 0.633453
s 0
usemtl Material.197
f 16/32/1 4/10/1 2/4/1 15/31/1
f 8/18/2 3/7/2 1/1/2 5/12/2
f 4/11/3 7/17/3 6/16/3 2/5/3
f 13/26/4 8/20/4 5/13/4
f 15/30/5 2/6/5 6/15/5 17/33/5
f 20/37/6 14/27/6 9/21/6 18/34/6
f 18/34/7 9/21/8 11/23/7 19/35/7
f 17/33/9 6/15/9 14/28/9 20/36/9
f 7/17/10 14/29/10 6/16/10
f 5/14/11 17/33/11 20/36/11 13/25/11
f 13/26/12 20/37/12 18/34/12 10/22/12
f 1/2/13 15/30/13 17/33/13 5/14/13
f 3/9/14 16/32/14 15/31/14 1/3/14
f 25/47/15 26/49/15 22/40/15
f 23/43/16 25/48/16 22/41/16 21/38/16
f 26/50/17 24/45/17 21/38/17 22/41/17
f 21/39/18 24/46/18 23/44/18
f 31/60/15 32/62/15 28/53/15
f 29/55/19 31/61/19 28/54/19 27/51/19
f 32/63/20 30/58/20 27/51/20 28/54/20
f 27/52/21 30/59/21 29/56/21
f 30/57/22 33/64/22 34/65/22 23/42/22
f 40/71/23 36/67/23 38/69/23 37/68/23
f 35/66/24 36/67/24 40/71/24 39/70/24
f 35/66/25 39/70/25 42/73/25 41/72/25
f 50/81/26 49/80/26 44/75/26 43/74/26
f 48/79/27 47/78/27 46/77/27 45/76/27
f 37/68/28 38/69/28 47/78/28 48/79/28
f 41/72/29 42/73/29 49/80/29 50/81/29
f 16/32/30 55/95/30 52/85/30 4/10/30
f 8/19/31 53/88/31 51/82/31 3/8/31
f 4/11/32 52/86/32 54/92/32 7/17/32
f 13/26/4 53/89/4 8/20/4
f 55/93/33 56/96/33 54/91/33 52/87/33
f 58/99/34 57/97/34 9/21/34 14/27/34
f 57/97/35 19/35/35 11/23/35 9/21/36
f 56/96/37 58/98/37 14/28/37 54/91/37
f 7/17/38 54/92/38 14/29/38
f 53/90/39 13/25/39 58/98/39 56/96/39
f 19/35/40 57/97/41 12/24/42
f 13/26/43 10/22/43 57/97/43 58/99/43
f 51/83/44 53/90/44 56/96/44 55/94/44
f 3/9/45 51/84/45 55/95/45 16/32/45
f 25/47/15 60/102/15 26/49/15
f 23/43/46 59/100/46 60/103/46 25/48/46
f 26/50/47 60/103/47 59/100/47 24/45/47
f 59/101/48 23/44/48 24/46/48
f 31/60/15 62/106/15 32/62/15
f 29/55/49 61/104/49 62/107/49 31/61/49
f 32/63/50 62/107/50 61/104/50 30/58/50
f 61/105/21 29/56/21 30/59/21
f 40/71/51 37/68/51 65/110/51 64/109/51
f 63/108/52 39/70/52 40/71/52 64/109/52
f 63/108/53 66/111/53 42/73/53 39/70/53
f 70/115/54 67/112/54 44/75/54 49/80/54
f 48/79/55 45/76/55 68/113/55 69/114/55
f 37/68/56 48/79/56 69/114/56 65/110/56
f 66/111/57 70/115/57 49/80/57 42/73/57
f 19/35/58 12/24/59 18/34/60
f 12/24/61 10/22/62 18/34/63
f 12/24/64 57/97/65 10/22/66
o Pump
v 0.166032 2.063082 0.000000
v 0.177809 2.264242 0.032922
v 0.992923 2.063082 0.000000
v 0.987592 2.264242 0.032922
v 0.166032 2.223677 0.000000
v 1.013062 2.228994 0.000000
v 0.177809 2.163653 0.062050
v 0.979394 2.163653 0.062050
v 1.013062 2.163653 0.000000
v 0.166032 2.163653 0.000000
v 0.177809 2.264242 -0.032922
v 0.987592 2.264242 -0.032922
v 0.177809 2.163653 -0.062050
v 0.979394 2.163653 -0.062050
vn 0.8558 0.0481 0.5150
vn -0.0000 0.2781 0.9605
vn -0.0021 0.6555 -0.7552
vn -0.9737 0.0406 0.2241
vn -0.9825 -0.0000 0.1865
vn -0.0000 -0.5251 0.8511
vn 0.8656 -0.1733 0.4697
vn 0.8558 0.0481 -0.5150
vn -0.0000 0.2781 -0.9605
vn -0.0021 0.6555 0.7552
vn -0.9737 0.0406 -0.2241
vn -0.9825 -0.0000 -0.1865
vn -0.0000 -0.5251 -0.8511
vn 0.8656 -0.1733 -0.4697
vt 0.573299 0.619786
vt 0.547757 0.534143
vt 0.549942 0.677735
vt 0.875000 0.750000
vt 0.648937 0.619786
vt 0.705438 0.534143
vt 0.555770 0.630940
vt 0.644639 0.675374
vt 0.704449 0.677735
vt 0.625000 0.750000
vt 0.875000 0.625000
vt 0.648937 0.657606
vt 0.644639 0.630940
vt 0.625000 0.625000
vt 0.611115 0.619786
vt 0.549942 0.605933
vt 0.702927 0.605933
vt 0.600201 0.675374
vt 0.600201 0.630940
vt 0.611115 0.657606
vt 0.549942 0.677735
vt 0.875000 0.750000
vt 0.648937 0.619786
vt 0.644639 0.675374
vt 0.704449 0.677735
vt 0.625000 0.750000
vt 0.611115 0.619786
vt 0.549942 0.605933
vt 0.702927 0.605933
vt 0.600201 0.675374
s 0
usemtl Material.198
f 79/134/67 76/128/67 74/123/67 78/133/67
f 78/132/68 74/124/68 72/118/68 77/131/68
f 76/129/69 75/126/69 72/119/69 74/125/69
f 77/130/70 72/120/70 75/127/70 80/135/70
f 71/116/71 77/130/71 80/135/71
f 73/121/72 78/132/72 77/131/72 71/117/72
f 73/122/73 79/134/73 78/133/73
f 79/134/74 84/145/74 82/139/74 76/128/74
f 84/144/75 83/143/75 81/136/75 82/140/75
f 76/129/76 82/141/76 81/137/76 75/126/76
f 83/142/77 80/135/77 75/127/77 81/138/77
f 71/116/78 80/135/78 83/142/78
f 73/121/79 71/117/79 83/143/79 84/144/79
f 73/122/80 84/145/80 79/134/80
o ShellLowPolyGreen.001
v -0.551621 1.802283 0.024032
v -0.551621 1.982598 0.024032
v -0.575653 1.802283 0.000000
v -0.575653 1.982598 0.000000
v -0.527589 1.802283 0.000000
v -0.527589 1.982598 0.000000
v -0.551621 1.853348 0.024032
v -0.527589 1.853348 0.000000
v -0.575653 1.853348 0.000000
v -0.551621 1.802283 -0.024032
v -0.551621 1.982598 -0.024032
v -0.551621 1.853348 -0.024032
vn 0.7071 -0.0000 0.7071
vn -0.0000 -1.0000 -0.0000
vn -0.0000 1.0000 -0.0000
vn -0.7071 -0.0000 0.7071
vn 0.7071 -0.0000 -0.7071
vn -0.7071 -0.0000 -0.7071
vt 0.821587 0.484619
vt 0.183923 0.104482
vt 0.002034 0.104482
vt 0.625000 0.750000
vt 0.758309 0.818041
vt 0.525350 0.311899
vt 0.013595 0.105289
vt 0.875000 0.625000
vt 0.529300 0.818041
vt 0.984330 0.177612
vt 0.172362 0.103675
vt 0.987318 0.818041
vt 0.625000 0.625000
vt 0.758309 0.515532
vt 0.185638 0.466411
vt 0.003749 0.466411
vt 0.987318 0.515532
vt 0.174077 0.465604
vt 0.529300 0.515532
vt 0.015310 0.467218
vt 0.821587 0.484619
vt 0.183923 0.104482
vt 0.002034 0.104482
vt 0.625000 0.750000
vt 0.758309 0.818041
vt 0.758309 0.515532
vt 0.185638 0.466411
vt 0.003749 0.466411
s 0
usemtl Material.199
f 92/162/81 90/157/81 86/150/81 91/159/81
f 87/151/82 89/155/82 85/146/82
f 90/158/83 88/153/83 86/149/83
f 91/159/84 86/150/84 88/154/84 93/164/84
f 85/147/84 91/160/84 93/165/84 87/152/84
f 89/156/81 92/163/81 91/161/81 85/148/81
f 92/162/85 96/171/85 95/170/85 90/157/85
f 87/151/82 94/166/82 89/155/82
f 90/158/83 95/169/83 88/153/83
f 96/171/86 93/164/86 88/154/86 95/170/86
f 94/167/86 87/152/86 93/165/86 96/172/86
f 89/156/85 94/168/85 96/173/85 92/163/85
o ShellLowPolyRed.001
v -0.491991 1.982668 -0.024250
v -0.491991 1.802101 -0.024250
v -0.467740 1.982668 0.000000
v -0.467740 1.802101 0.000000
v -0.516241 1.982668 0.000000
v -0.516241 1.802101 0.000000
v -0.491991 1.853143 -0.024250
v -0.516241 1.853143 0.000000
v -0.467740 1.853143 0.000000
v -0.491991 1.982668 0.024251
v -0.491991 1.802101 0.024251
v -0.491991 1.853143 0.024251
vn -0.7071 -0.0000 -0.7071
vn -0.0000 1.0000 -0.0000
vn -0.0000 -1.0000 -0.0000
vn 0.7071 -0.0000 -0.7071
vn -0.7071 -0.0000 0.7071
vn 0.7071 -0.0000 0.7071
vt 0.238621 1.001621
vt 0.248625 0.890355
vt 0.018398 0.466638
vt 0.761304 0.001869
vt 0.020464 0.121861
vt 0.495392 0.936879
vt 0.495386 0.890355
vt 0.994736 0.241086
vt 0.231272 0.121861
vt 0.008178 0.941105
vt 0.001864 0.890355
vt 0.229197 0.468648
vt 0.519943 0.238291
vt 0.021755 0.114614
vt 0.020464 0.473901
vt 0.248625 0.511575
vt 0.232554 0.116624
vt 0.001864 0.511575
vt 0.231272 0.473901
vt 0.495386 0.511575
vt 0.238621 1.001621
vt 0.248625 0.890355
vt 0.018398 0.466638
vt 0.761304 0.001869
vt 0.020464 0.121861
vt 0.021755 0.114614
vt 0.020464 0.473901
vt 0.248625 0.511575
s 0
usemtl Material.200
f 104/190/87 103/187/87 98/176/87 102/185/87
f 99/179/88 97/174/88 101/183/88
f 102/186/89 98/177/89 100/181/89
f 103/188/90 105/192/90 100/182/90 98/178/90
f 97/175/90 99/180/90 105/193/90 103/189/90
f 101/184/87 97/175/87 103/189/87 104/191/87
f 104/190/91 102/185/91 107/196/91 108/199/91
f 99/179/88 101/183/88 106/194/88
f 102/186/89 100/181/89 107/197/89
f 108/200/92 107/198/92 100/182/92 105/192/92
f 106/195/92 108/201/92 105/193/92 99/180/92
f 101/184/91 104/191/91 108/201/91 106/195/91
o Trigger
v -0.871878 1.995662 0.000000
v -0.901476 2.105515 0.000000
v -0.850768 2.130164 0.000000
v -0.896643 2.045578 0.000000
v -0.880521 2.054566 0.000000
vn -0.0000 -0.0000 1.0000
vt 0.367325 0.579762
vt 0.362459 0.661066
vt 0.371884 0.679371
vt 0.362987 0.616899
vt 0.366037 0.623786
s 0
usemtl Material.201
f 112/205/93 113/206/93 111/204/93 110/203/93
f 109/202/93 113/206/93 112/205/93
